<svg width="41" height="40" viewBox="0 0 41 40" fill="none" xmlns="http://www.w3.org/2000/svg">
<g clip-path="url(#clip0_339_502)">
<rect x="0.5" y="16.6667" width="23.3333" height="23.3333" fill="#FFBD35"/>
<path d="M11.1 31.3L11.5166 35L14.2166 32.4333L18.8333 19.7667C17.7 19.4833 16.7 18.9167 15.8833 18.1333L11.1 31.3ZM25.1166 18.1333C24.3 18.9167 23.2833 19.4833 22.1666 19.7667L26.7833 32.4333L29.4833 35L29.9166 31.3L25.1166 18.1333V18.1333ZM25.4 14.3333C25.9 11.7333 24.4 9.43333 22.1666 8.63333V6.66667C22.1666 5.75 21.4166 5 20.5 5C19.5833 5 18.8333 5.75 18.8333 6.66667V8.63333C16.9 9.33333 15.5 11.1667 15.5 13.3333C15.5 16.4 18.2666 18.8333 21.4333 18.25C23.4 17.8833 25.0166 16.3 25.4 14.3333V14.3333ZM20.5 15C19.5833 15 18.8333 14.25 18.8333 13.3333C18.8333 12.4167 19.5833 11.6667 20.5 11.6667C21.4166 11.6667 22.1666 12.4167 22.1666 13.3333C22.1666 14.25 21.4166 15 20.5 15Z" fill="#292E3D"/>
</g>
<defs>
<clipPath id="clip0_339_502">
<rect width="40" height="40" fill="white" transform="translate(0.5)"/>
</clipPath>
</defs>
</svg>
