<svg width="41" height="40" viewBox="0 0 41 40" fill="none" xmlns="http://www.w3.org/2000/svg">
<g clip-path="url(#clip0_339_1171)">
<rect x="0.5" y="16.6667" width="23.3333" height="23.3333" fill="#FFBD35"/>
<path d="M30.5 26.6667H27.1667V25.0001H13.8334V26.6667H10.5V25.0001H3.83337V33.3334H37.1667V25.0001H30.5V26.6667ZM33.8334 13.3334H28.8334V10.0001C28.8334 8.16675 27.3334 6.66675 25.5 6.66675H15.5C13.6667 6.66675 12.1667 8.16675 12.1667 10.0001V13.3334H7.16671C5.33337 13.3334 3.83337 14.8334 3.83337 16.6667V23.3334H10.5V20.0001H13.8334V23.3334H27.1667V20.0001H30.5V23.3334H37.1667V16.6667C37.1667 14.8334 35.6667 13.3334 33.8334 13.3334ZM25.5 13.3334H15.5V10.0001H25.5V13.3334Z" fill="white"/>
</g>
<defs>
<clipPath id="clip0_339_1171">
<rect width="40" height="40" fill="white" transform="translate(0.5)"/>
</clipPath>
</defs>
</svg>
